{
	"asset":{
		"generator":"Khronos glTF Blender I/O v4.2.57",
		"version":"2.0"
	},
	"scene":0,
	"scenes":[
		{
			"name":"Scene",
			"nodes":[
				0
			]
		}
	],
	"nodes":[
		{
			"mesh":0,
			"name":"Mesh_0.001"
		}
	],
	"materials":[
		{
			"alphaCutoff":0.33329999446868896,
			"alphaMode":"MASK",
			"name":"MI_Aurora_Sword_FrozenHearth",
			"normalTexture":{
				"index":0
			},
			"occlusionTexture":{
				"index":1
			},
			"pbrMetallicRoughness":{
				"baseColorTexture":{
					"index":2
				},
				"metallicRoughnessTexture":{
					"index":1
				}
			}
		}
	],
	"meshes":[
		{
			"name":"Mesh_0.001",
			"primitives":[
				{
					"attributes":{
						"POSITION":0,
						"NORMAL":1,
						"TEXCOORD_0":2,
						"TEXCOORD_1":3
					},
					"indices":4,
					"material":0
				}
			]
		}
	],
	"textures":[
		{
			"sampler":0,
			"source":0
		},
		{
			"sampler":0,
			"source":1
		},
		{
			"sampler":0,
			"source":2
		}
	],
	"images":[
		{
			"mimeType":"image/png",
			"name":"MI_Aurora_Sword_FrozenHearth_Normal",
			"uri":"MI_Aurora_Sword_FrozenHearth_Normal.png"
		},
		{
			"mimeType":"image/png",
			"name":"MI_Aurora_Sword_FrozenHearth_Occlusion-MI_Aurora_Sword_FrozenHearth_MetallicRoughness",
			"uri":"MI_Aurora_Sword_FrozenHearth_Occlusion-MI_Aurora_Sword_FrozenHearth_MetallicRoughness.png"
		},
		{
			"mimeType":"image/png",
			"name":"MI_Aurora_Sword_FrozenHearth_BaseColor",
			"uri":"MI_Aurora_Sword_FrozenHearth_BaseColor.png"
		}
	],
	"accessors":[
		{
			"bufferView":0,
			"componentType":5126,
			"count":874,
			"max":[
				0.0379393994808197,
				0.07462239265441895,
				1.0239369869232178
			],
			"min":[
				-0.03788822889328003,
				-0.06546980142593384,
				-0.2570725381374359
			],
			"type":"VEC3"
		},
		{
			"bufferView":1,
			"componentType":5126,
			"count":874,
			"type":"VEC3"
		},
		{
			"bufferView":2,
			"componentType":5126,
			"count":874,
			"type":"VEC2"
		},
		{
			"bufferView":3,
			"componentType":5126,
			"count":874,
			"type":"VEC2"
		},
		{
			"bufferView":4,
			"componentType":5123,
			"count":4326,
			"type":"SCALAR"
		}
	],
	"bufferViews":[
		{
			"buffer":0,
			"byteLength":10488,
			"byteOffset":0,
			"target":34962
		},
		{
			"buffer":0,
			"byteLength":10488,
			"byteOffset":10488,
			"target":34962
		},
		{
			"buffer":0,
			"byteLength":6992,
			"byteOffset":20976,
			"target":34962
		},
		{
			"buffer":0,
			"byteLength":6992,
			"byteOffset":27968,
			"target":34962
		},
		{
			"buffer":0,
			"byteLength":8652,
			"byteOffset":34960,
			"target":34963
		}
	],
	"samplers":[
		{
			"magFilter":9729,
			"minFilter":9987
		}
	],
	"buffers":[
		{
			"byteLength":43612,
			"uri":"Sword.bin"
		}
	]
}
