{
  "accessors": [
    {
      "bufferView": 0,
      "componentType": 5126,
      "count": 544,
      "max": [
        0.8560369610786438,
        0.47929003834724426,
        -2.056313991546631
      ],
      "min": [
        -0.8560369610786438,
        0.28990116715431213,
        -2.4041855335235596
      ],
      "type": "VEC3"
    },
    {
      "bufferView": 1,
      "componentType": 5126,
      "count": 544,
      "max": [
        1.0,
        1.0,
        0.28750351071357727
      ],
      "min": [
        -1.0,
        -1.0,
        -1.0
      ],
      "type": "VEC3"
    },
    {
      "bufferView": 2,
      "componentType": 5126,
      "count": 544,
      "max": [
        -1.0,
        0.0,
        0.0,
        1.0
      ],
      "min": [
        -1.0,
        0.0,
        0.0,
        1.0
      ],
      "type": "VEC4"
    },
    {
      "bufferView": 3,
      "componentType": 5126,
      "count": 544,
      "max": [
        0.7040759325027466,
        0.9795308709144592
      ],
      "min": [
        0.6834981441497803,
        0.9088087677955627
      ],
      "type": "VEC2"
    },
    {
      "bufferView": 4,
      "componentType": 5125,
      "count": 1608,
      "max": [
        543
      ],
      "min": [
        0
      ],
      "type": "SCALAR"
    },
    {
      "bufferView": 5,
      "componentType": 5126,
      "count": 268,
      "max": [
        1.2313899993896484,
        0.7303712368011475,
        1.0078059434890747
      ],
      "min": [
        -1.2313899993896484,
        0.3549611270427704,
        -1.6729323863983154
      ],
      "type": "VEC3"
    },
    {
      "bufferView": 6,
      "componentType": 5126,
      "count": 268,
      "max": [
        1.0,
        0.8577307462692261,
        1.0
      ],
      "min": [
        -1.0,
        -0.857730507850647,
        -1.0
      ],
      "type": "VEC3"
    },
    {
      "bufferView": 7,
      "componentType": 5126,
      "count": 268,
      "max": [
        -1.0,
        0.0,
        0.0,
        1.0
      ],
      "min": [
        -1.0,
        0.0,
        0.0,
        1.0
      ],
      "type": "VEC4"
    },
    {
      "bufferView": 8,
      "componentType": 5126,
      "count": 268,
      "max": [
        0.17242410778999329,
        0.49803823232650757
      ],
      "min": [
        0.17242410778999329,
        0.22345685958862305
      ],
      "type": "VEC2"
    },
    {
      "bufferView": 9,
      "componentType": 5125,
      "count": 588,
      "max": [
        267
      ],
      "min": [
        0
      ],
      "type": "SCALAR"
    },
    {
      "bufferView": 10,
      "componentType": 5126,
      "count": 1024,
      "max": [
        1.3752713203430176,
        1.7454432249069214,
        2.1383121013641357
      ],
      "min": [
        -1.3752713203430176,
        0.35492369532585144,
        -1.956555724143982
      ],
      "type": "VEC3"
    },
    {
      "bufferView": 11,
      "componentType": 5126,
      "count": 1024,
      "max": [
        0.9979828596115112,
        0.9994869232177734,
        1.0
      ],
      "min": [
        -0.9985990524291992,
        -0.9999443292617798,
        -0.9956996440887451
      ],
      "type": "VEC3"
    },
    {
      "bufferView": 12,
      "componentType": 5126,
      "count": 1024,
      "max": [
        -1.0,
        0.0,
        0.0,
        1.0
      ],
      "min": [
        -1.0,
        0.0,
        0.0,
        1.0
      ],
      "type": "VEC4"
    },
    {
      "bufferView": 13,
      "componentType": 5126,
      "count": 1024,
      "max": [
        0.6851876974105835,
        0.9741822481155396
      ],
      "min": [
        0.38290005922317505,
        0.8623393774032593
      ],
      "type": "VEC2"
    },
    {
      "bufferView": 14,
      "componentType": 5125,
      "count": 3582,
      "max": [
        1023
      ],
      "min": [
        0
      ],
      "type": "SCALAR"
    },
    {
      "bufferView": 15,
      "componentType": 5126,
      "count": 1353,
      "max": [
        0.2820815443992615,
        0.5424965023994446,
        0.5424963235855103
      ],
      "min": [
        -0.27120107412338257,
        -0.5424963235855103,
        -0.5424964427947998
      ],
      "type": "VEC3"
    },
    {
      "bufferView": 16,
      "componentType": 5126,
      "count": 1353,
      "max": [
        1.0,
        1.0,
        1.0
      ],
      "min": [
        -0.9972941279411316,
        -1.0,
        -1.0
      ],
      "type": "VEC3"
    },
    {
      "bufferView": 17,
      "componentType": 5126,
      "count": 1353,
      "max": [
        -1.0,
        0.0,
        0.0,
        1.0
      ],
      "min": [
        -1.0,
        0.0,
        0.0,
        1.0
      ],
      "type": "VEC4"
    },
    {
      "bufferView": 18,
      "componentType": 5126,
      "count": 1353,
      "max": [
        0.47851890325546265,
        0.9876160025596619
      ],
      "min": [
        0.38528504967689514,
        0.8945693969726563
      ],
      "type": "VEC2"
    },
    {
      "bufferView": 19,
      "componentType": 5125,
      "count": 4011,
      "max": [
        1352
      ],
      "min": [
        0
      ],
      "type": "SCALAR"
    },
    {
      "bufferView": 20,
      "componentType": 5126,
      "count": 1353,
      "max": [
        0.2820815443992615,
        0.5424965023994446,
        0.5424963235855103
      ],
      "min": [
        -0.27120107412338257,
        -0.5424963235855103,
        -0.5424964427947998
      ],
      "type": "VEC3"
    },
    {
      "bufferView": 21,
      "componentType": 5126,
      "count": 1353,
      "max": [
        1.0,
        1.0,
        1.0
      ],
      "min": [
        -0.9972941279411316,
        -1.0,
        -1.0
      ],
      "type": "VEC3"
    },
    {
      "bufferView": 22,
      "componentType": 5126,
      "count": 1353,
      "max": [
        -1.0,
        0.0,
        0.0,
        1.0
      ],
      "min": [
        -1.0,
        0.0,
        0.0,
        1.0
      ],
      "type": "VEC4"
    },
    {
      "bufferView": 23,
      "componentType": 5126,
      "count": 1353,
      "max": [
        0.47851890325546265,
        0.9876160025596619
      ],
      "min": [
        0.38528504967689514,
        0.8945693969726563
      ],
      "type": "VEC2"
    },
    {
      "bufferView": 24,
      "componentType": 5125,
      "count": 4011,
      "max": [
        1352
      ],
      "min": [
        0
      ],
      "type": "SCALAR"
    },
    {
      "bufferView": 25,
      "componentType": 5126,
      "count": 1353,
      "max": [
        0.2820815443992615,
        0.5424965023994446,
        0.5424963235855103
      ],
      "min": [
        -0.27120107412338257,
        -0.5424963235855103,
        -0.5424964427947998
      ],
      "type": "VEC3"
    },
    {
      "bufferView": 26,
      "componentType": 5126,
      "count": 1353,
      "max": [
        1.0,
        1.0,
        1.0
      ],
      "min": [
        -0.9972941279411316,
        -1.0,
        -1.0
      ],
      "type": "VEC3"
    },
    {
      "bufferView": 27,
      "componentType": 5126,
      "count": 1353,
      "max": [
        -1.0,
        0.0,
        0.0,
        1.0
      ],
      "min": [
        -1.0,
        0.0,
        0.0,
        1.0
      ],
      "type": "VEC4"
    },
    {
      "bufferView": 28,
      "componentType": 5126,
      "count": 1353,
      "max": [
        0.47851890325546265,
        0.9876160025596619
      ],
      "min": [
        0.38528504967689514,
        0.8945693969726563
      ],
      "type": "VEC2"
    },
    {
      "bufferView": 29,
      "componentType": 5125,
      "count": 4011,
      "max": [
        1352
      ],
      "min": [
        0
      ],
      "type": "SCALAR"
    },
    {
      "bufferView": 30,
      "componentType": 5126,
      "count": 1353,
      "max": [
        0.2820815443992615,
        0.5424965023994446,
        0.5424963235855103
      ],
      "min": [
        -0.27120107412338257,
        -0.5424963235855103,
        -0.5424964427947998
      ],
      "type": "VEC3"
    },
    {
      "bufferView": 31,
      "componentType": 5126,
      "count": 1353,
      "max": [
        1.0,
        1.0,
        1.0
      ],
      "min": [
        -0.9972941279411316,
        -1.0,
        -1.0
      ],
      "type": "VEC3"
    },
    {
      "bufferView": 32,
      "componentType": 5126,
      "count": 1353,
      "max": [
        -1.0,
        0.0,
        0.0,
        1.0
      ],
      "min": [
        -1.0,
        0.0,
        0.0,
        1.0
      ],
      "type": "VEC4"
    },
    {
      "bufferView": 33,
      "componentType": 5126,
      "count": 1353,
      "max": [
        0.47851890325546265,
        0.9876160025596619
      ],
      "min": [
        0.38528504967689514,
        0.8945693969726563
      ],
      "type": "VEC2"
    },
    {
      "bufferView": 34,
      "componentType": 5125,
      "count": 4011,
      "max": [
        1352
      ],
      "min": [
        0
      ],
      "type": "SCALAR"
    },
    {
      "bufferView": 35,
      "componentType": 5126,
      "count": 2972,
      "max": [
        1.3610637187957764,
        2.4163033962249756,
        2.152125597000122
      ],
      "min": [
        -1.3610637187957764,
        0.18546849489212036,
        -2.3892641067504883
      ],
      "type": "VEC3"
    },
    {
      "bufferView": 36,
      "componentType": 5126,
      "count": 2972,
      "max": [
        1.0,
        0.9999933838844299,
        0.9993646740913391
      ],
      "min": [
        -1.0,
        -0.9999995231628418,
        -0.9999946355819702
      ],
      "type": "VEC3"
    },
    {
      "bufferView": 37,
      "componentType": 5126,
      "count": 2972,
      "max": [
        1.0,
        0.9942622184753418,
        0.9995788931846619,
        1.0
      ],
      "min": [
        -1.0,
        -0.23629631102085114,
        -0.9999939203262329,
        1.0
      ],
      "type": "VEC4"
    },
    {
      "bufferView": 38,
      "componentType": 5126,
      "count": 2972,
      "max": [
        0.616728663444519,
        0.9859346151351929
      ],
      "min": [
        0.024291761219501495,
        0.1494045853614807
      ],
      "type": "VEC2"
    },
    {
      "bufferView": 39,
      "componentType": 5125,
      "count": 9660,
      "max": [
        2971
      ],
      "min": [
        0
      ],
      "type": "SCALAR"
    },
    {
      "bufferView": 40,
      "componentType": 5126,
      "count": 111,
      "max": [
        0.7371562719345093,
        1.552228331565857,
        2.152125597000122
      ],
      "min": [
        -0.7371562719345093,
        0.9261807799339294,
        0.6670230627059937
      ],
      "type": "VEC3"
    },
    {
      "bufferView": 41,
      "componentType": 5126,
      "count": 111,
      "max": [
        0.7998321652412415,
        0.9943915605545044,
        0.9634226560592651
      ],
      "min": [
        -0.7998323440551758,
        0.2679866850376129,
        -0.9119206070899963
      ],
      "type": "VEC3"
    },
    {
      "bufferView": 42,
      "componentType": 5126,
      "count": 111,
      "max": [
        -1.0,
        0.0,
        0.0,
        1.0
      ],
      "min": [
        -1.0,
        0.0,
        0.0,
        1.0
      ],
      "type": "VEC4"
    },
    {
      "bufferView": 43,
      "componentType": 5126,
      "count": 111,
      "max": [
        0.22032222151756287,
        0.4934771656990051
      ],
      "min": [
        0.22032222151756287,
        0.21782875061035156
      ],
      "type": "VEC2"
    },
    {
      "bufferView": 44,
      "componentType": 5125,
      "count": 348,
      "max": [
        110
      ],
      "min": [
        0
      ],
      "type": "SCALAR"
    },
    {
      "bufferView": 45,
      "componentType": 5126,
      "count": 710,
      "max": [
        1.2099583148956299,
        1.4701175689697266,
        -1.784764051437378
      ],
      "min": [
        -1.2099583148956299,
        1.1910375356674194,
        -2.3554017543792725
      ],
      "type": "VEC3"
    },
    {
      "bufferView": 46,
      "componentType": 5126,
      "count": 710,
      "max": [
        0.9815751910209656,
        0.9625558853149414,
        0.9570190906524658
      ],
      "min": [
        -0.9815751910209656,
        -0.9629135131835938,
        -0.9946006536483765
      ],
      "type": "VEC3"
    },
    {
      "bufferView": 47,
      "componentType": 5126,
      "count": 710,
      "max": [
        -1.0,
        0.0,
        0.0,
        1.0
      ],
      "min": [
        -1.0,
        0.0,
        0.0,
        1.0
      ],
      "type": "VEC4"
    },
    {
      "bufferView": 48,
      "componentType": 5126,
      "count": 710,
      "max": [
        0.6070669889450073,
        1.0
      ],
      "min": [
        0.0,
        0.23308050632476807
      ],
      "type": "VEC2"
    },
    {
      "bufferView": 49,
      "componentType": 5125,
      "count": 2232,
      "max": [
        709
      ],
      "min": [
        0
      ],
      "type": "SCALAR"
    }
  ],
  "asset": {
    "version": "2.0"
  },
  "bufferViews": [
    {
      "buffer": 0,
      "byteLength": 6528,
      "target": 34962
    },
    {
      "buffer": 0,
      "byteLength": 6528,
      "byteOffset": 6528,
      "target": 34962
    },
    {
      "buffer": 0,
      "byteLength": 8704,
      "byteOffset": 13056,
      "target": 34962
    },
    {
      "buffer": 0,
      "byteLength": 4352,
      "byteOffset": 21760,
      "target": 34962
    },
    {
      "buffer": 0,
      "byteLength": 6432,
      "byteOffset": 26112,
      "target": 34963
    },
    {
      "buffer": 0,
      "byteLength": 3216,
      "byteOffset": 32544,
      "target": 34962
    },
    {
      "buffer": 0,
      "byteLength": 3216,
      "byteOffset": 35760,
      "target": 34962
    },
    {
      "buffer": 0,
      "byteLength": 4288,
      "byteOffset": 38976,
      "target": 34962
    },
    {
      "buffer": 0,
      "byteLength": 2144,
      "byteOffset": 43264,
      "target": 34962
    },
    {
      "buffer": 0,
      "byteLength": 2352,
      "byteOffset": 45408,
      "target": 34963
    },
    {
      "buffer": 0,
      "byteLength": 12288,
      "byteOffset": 47760,
      "target": 34962
    },
    {
      "buffer": 0,
      "byteLength": 12288,
      "byteOffset": 60048,
      "target": 34962
    },
    {
      "buffer": 0,
      "byteLength": 16384,
      "byteOffset": 72336,
      "target": 34962
    },
    {
      "buffer": 0,
      "byteLength": 8192,
      "byteOffset": 88720,
      "target": 34962
    },
    {
      "buffer": 0,
      "byteLength": 14328,
      "byteOffset": 96912,
      "target": 34963
    },
    {
      "buffer": 0,
      "byteLength": 16236,
      "byteOffset": 111240,
      "target": 34962
    },
    {
      "buffer": 0,
      "byteLength": 16236,
      "byteOffset": 127476,
      "target": 34962
    },
    {
      "buffer": 0,
      "byteLength": 21648,
      "byteOffset": 143712,
      "target": 34962
    },
    {
      "buffer": 0,
      "byteLength": 10824,
      "byteOffset": 165360,
      "target": 34962
    },
    {
      "buffer": 0,
      "byteLength": 16044,
      "byteOffset": 176184,
      "target": 34963
    },
    {
      "buffer": 0,
      "byteLength": 16236,
      "byteOffset": 192228,
      "target": 34962
    },
    {
      "buffer": 0,
      "byteLength": 16236,
      "byteOffset": 208464,
      "target": 34962
    },
    {
      "buffer": 0,
      "byteLength": 21648,
      "byteOffset": 224700,
      "target": 34962
    },
    {
      "buffer": 0,
      "byteLength": 10824,
      "byteOffset": 246348,
      "target": 34962
    },
    {
      "buffer": 0,
      "byteLength": 16044,
      "byteOffset": 257172,
      "target": 34963
    },
    {
      "buffer": 0,
      "byteLength": 16236,
      "byteOffset": 273216,
      "target": 34962
    },
    {
      "buffer": 0,
      "byteLength": 16236,
      "byteOffset": 289452,
      "target": 34962
    },
    {
      "buffer": 0,
      "byteLength": 21648,
      "byteOffset": 305688,
      "target": 34962
    },
    {
      "buffer": 0,
      "byteLength": 10824,
      "byteOffset": 327336,
      "target": 34962
    },
    {
      "buffer": 0,
      "byteLength": 16044,
      "byteOffset": 338160,
      "target": 34963
    },
    {
      "buffer": 0,
      "byteLength": 16236,
      "byteOffset": 354204,
      "target": 34962
    },
    {
      "buffer": 0,
      "byteLength": 16236,
      "byteOffset": 370440,
      "target": 34962
    },
    {
      "buffer": 0,
      "byteLength": 21648,
      "byteOffset": 386676,
      "target": 34962
    },
    {
      "buffer": 0,
      "byteLength": 10824,
      "byteOffset": 408324,
      "target": 34962
    },
    {
      "buffer": 0,
      "byteLength": 16044,
      "byteOffset": 419148,
      "target": 34963
    },
    {
      "buffer": 0,
      "byteLength": 35664,
      "byteOffset": 435192,
      "target": 34962
    },
    {
      "buffer": 0,
      "byteLength": 35664,
      "byteOffset": 470856,
      "target": 34962
    },
    {
      "buffer": 0,
      "byteLength": 47552,
      "byteOffset": 506520,
      "target": 34962
    },
    {
      "buffer": 0,
      "byteLength": 23776,
      "byteOffset": 554072,
      "target": 34962
    },
    {
      "buffer": 0,
      "byteLength": 38640,
      "byteOffset": 577848,
      "target": 34963
    },
    {
      "buffer": 0,
      "byteLength": 1332,
      "byteOffset": 616488,
      "target": 34962
    },
    {
      "buffer": 0,
      "byteLength": 1332,
      "byteOffset": 617820,
      "target": 34962
    },
    {
      "buffer": 0,
      "byteLength": 1776,
      "byteOffset": 619152,
      "target": 34962
    },
    {
      "buffer": 0,
      "byteLength": 888,
      "byteOffset": 620928,
      "target": 34962
    },
    {
      "buffer": 0,
      "byteLength": 1392,
      "byteOffset": 621816,
      "target": 34963
    },
    {
      "buffer": 0,
      "byteLength": 8520,
      "byteOffset": 623208,
      "target": 34962
    },
    {
      "buffer": 0,
      "byteLength": 8520,
      "byteOffset": 631728,
      "target": 34962
    },
    {
      "buffer": 0,
      "byteLength": 11360,
      "byteOffset": 640248,
      "target": 34962
    },
    {
      "buffer": 0,
      "byteLength": 5680,
      "byteOffset": 651608,
      "target": 34962
    },
    {
      "buffer": 0,
      "byteLength": 8928,
      "byteOffset": 657288,
      "target": 34963
    }
  ],
  "buffers": [
    {
      "byteLength": 666216,
      "uri": "data:application/octet-stream;base64,"
    }
  ],
  "images": [
    {
      "uri": "car.png"
    }
  ],
  "materials": [
    {
      "name": "car",
      "pbrMetallicRoughness": {
        "baseColorTexture": {
          "index": 0
        },
        "metallicFactor": 0.0,
        "roughnessFactor": 0.0
      }
    }
  ],
  "meshes": [
    {
      "primitives": [
        {
          "attributes": {
            "NORMAL": 1,
            "POSITION": 0,
            "TANGENT": 2,
            "TEXCOORD_0": 3
          },
          "indices": 4,
          "material": 0,
          "mode": 4
        }
      ]
    },
    {
      "primitives": [
        {
          "attributes": {
            "NORMAL": 6,
            "POSITION": 5,
            "TANGENT": 7,
            "TEXCOORD_0": 8
          },
          "indices": 9,
          "material": 0,
          "mode": 4
        }
      ]
    },
    {
      "primitives": [
        {
          "attributes": {
            "NORMAL": 11,
            "POSITION": 10,
            "TANGENT": 12,
            "TEXCOORD_0": 13
          },
          "indices": 14,
          "material": 0,
          "mode": 4
        }
      ]
    },
    {
      "primitives": [
        {
          "attributes": {
            "NORMAL": 16,
            "POSITION": 15,
            "TANGENT": 17,
            "TEXCOORD_0": 18
          },
          "indices": 19,
          "material": 0,
          "mode": 4
        }
      ]
    },
    {
      "primitives": [
        {
          "attributes": {
            "NORMAL": 21,
            "POSITION": 20,
            "TANGENT": 22,
            "TEXCOORD_0": 23
          },
          "indices": 24,
          "material": 0,
          "mode": 4
        }
      ]
    },
    {
      "primitives": [
        {
          "attributes": {
            "NORMAL": 26,
            "POSITION": 25,
            "TANGENT": 27,
            "TEXCOORD_0": 28
          },
          "indices": 29,
          "material": 0,
          "mode": 4
        }
      ]
    },
    {
      "primitives": [
        {
          "attributes": {
            "NORMAL": 31,
            "POSITION": 30,
            "TANGENT": 32,
            "TEXCOORD_0": 33
          },
          "indices": 34,
          "material": 0,
          "mode": 4
        }
      ]
    },
    {
      "primitives": [
        {
          "attributes": {
            "NORMAL": 36,
            "POSITION": 35,
            "TANGENT": 37,
            "TEXCOORD_0": 38
          },
          "indices": 39,
          "material": 0,
          "mode": 4
        }
      ]
    },
    {
      "primitives": [
        {
          "attributes": {
            "NORMAL": 41,
            "POSITION": 40,
            "TANGENT": 42,
            "TEXCOORD_0": 43
          },
          "indices": 44,
          "material": 0,
          "mode": 4
        }
      ]
    },
    {
      "primitives": [
        {
          "attributes": {
            "NORMAL": 46,
            "POSITION": 45,
            "TANGENT": 47,
            "TEXCOORD_0": 48
          },
          "indices": 49,
          "material": 0,
          "mode": 4
        }
      ]
    }
  ],
  "nodes": [
    {
      "children": [
        1,
        2,
        3,
        4,
        5,
        6,
        7,
        8,
        9,
        10
      ],
      "name": "red",
      "rotation": [
        0.0,
        0.0,
        0.0,
        1.0
      ],
      "scale": [
        1.0,
        1.0,
        1.0
      ],
      "translation": [
        0.0,
        0.0,
        0.0
      ]
    },
    {
      "mesh": 0,
      "name": "exhaust_pipe",
      "rotation": [
        0.0,
        0.0,
        0.0,
        1.0
      ],
      "scale": [
        1.0,
        1.0,
        1.0
      ],
      "translation": [
        0.0,
        0.0,
        0.0
      ]
    },
    {
      "mesh": 1,
      "name": "brake",
      "rotation": [
        0.0,
        0.0,
        0.0,
        1.0
      ],
      "scale": [
        1.0,
        1.0,
        1.0
      ],
      "translation": [
        0.0,
        0.0,
        0.0
      ]
    },
    {
      "mesh": 2,
      "name": "accessories",
      "rotation": [
        0.0,
        0.0,
        0.0,
        1.0
      ],
      "scale": [
        1.0,
        1.0,
        1.0
      ],
      "translation": [
        0.0,
        0.0,
        0.0
      ]
    },
    {
      "mesh": 3,
      "name": "wheel_L",
      "rotation": [
        0.0,
        0.0,
        0.0,
        1.0
      ],
      "scale": [
        1.0,
        1.0,
        1.0
      ],
      "translation": [
        1.1279277801513672,
        0.5426661968231201,
        1.1020667552947998
      ]
    },
    {
      "mesh": 4,
      "name": "wheel_L1",
      "rotation": [
        0.0,
        0.0,
        0.0,
        1.0
      ],
      "scale": [
        1.0,
        1.0,
        1.0
      ],
      "translation": [
        1.1279277801513672,
        0.5426662564277649,
        -1.4466854333877563
      ]
    },
    {
      "mesh": 5,
      "name": "wheel_L2",
      "rotation": [
        6.123234924670329e-17,
        1.0,
        6.123234924670329e-17,
        -1.3315805347247078e-07
      ],
      "scale": [
        1.0,
        1.0,
        1.0
      ],
      "translation": [
        -1.1279276609420776,
        0.5426663160324097,
        -1.4466854333877563
      ]
    },
    {
      "mesh": 6,
      "name": "wheel_R",
      "rotation": [
        6.123234924670329e-17,
        1.0,
        6.123234924670329e-17,
        -1.3315805347247078e-07
      ],
      "scale": [
        1.0,
        1.0,
        1.0
      ],
      "translation": [
        -1.1279277801513672,
        0.5426661968231201,
        1.1020667552947998
      ]
    },
    {
      "mesh": 7,
      "name": "body_01",
      "rotation": [
        0.0,
        0.0,
        0.0,
        1.0
      ],
      "scale": [
        1.0,
        1.0,
        1.0
      ],
      "translation": [
        0.0,
        0.0,
        0.0
      ]
    },
    {
      "mesh": 8,
      "name": "hood",
      "rotation": [
        0.0,
        0.0,
        0.0,
        1.0
      ],
      "scale": [
        1.0,
        1.0,
        1.0
      ],
      "translation": [
        0.0,
        0.0,
        0.0
      ]
    },
    {
      "mesh": 9,
      "name": "lanterns",
      "rotation": [
        0.0,
        0.0,
        0.0,
        1.0
      ],
      "scale": [
        1.0,
        1.0,
        1.0
      ],
      "translation": [
        0.0,
        0.0,
        0.0
      ]
    }
  ],
  "samplers": [
    {
      "wrapS": 10497,
      "wrapT": 10497
    }
  ],
  "scenes": [
    {
      "nodes": [
        0
      ]
    }
  ],
  "textures": [
    {
      "sampler": 0,
      "source": 0
    }
  ]
}
