{
	"asset":{
		"generator":"Khronos glTF Blender I/O v4.2.57",
		"version":"2.0"
	},
	"extensionsUsed":[
		"KHR_texture_transform",
		"KHR_materials_emissive_strength",
		"KHR_materials_specular"
	],
	"extensionsRequired":[
		"KHR_texture_transform"
	],
	"scene":0,
	"scenes":[
		{
			"name":"Scene",
			"nodes":[
				0
			]
		}
	],
	"nodes":[
		{
			"mesh":0,
			"name":"Sparrow.002"
		}
	],
	"materials":[
		{
			"alphaCutoff":0.33329999446868896,
			"alphaMode":"MASK",
			"doubleSided":true,
			"emissiveFactor":[
				1,
				1,
				1
			],
			"emissiveTexture":{
				"extensions":{
					"KHR_texture_transform":{
						"offset":[
							-0.25249966979026794,
							-0.006681375205516815
						],
						"scale":[
							1.5380123853683472,
							1.0086913108825684
						]
					}
				},
				"index":0,
				"texCoord":1
			},
			"extensions":{
				"KHR_materials_emissive_strength":{
					"emissiveStrength":78.4375
				},
				"KHR_materials_specular":{
					"specularTexture":{
						"extensions":{
							"KHR_texture_transform":{
								"offset":[
									-0.25249966979026794,
									-0.006681375205516815
								],
								"scale":[
									1.5380123853683472,
									1.0086913108825684
								]
							}
						},
						"index":1,
						"texCoord":1
					}
				}
			},
			"name":"M_Sparrow_Arrow_Sparrow",
			"normalTexture":{
				"extensions":{
					"KHR_texture_transform":{
						"offset":[
							-0.25249966979026794,
							-0.006681375205516815
						],
						"scale":[
							1.5380123853683472,
							1.0086913108825684
						]
					}
				},
				"index":2,
				"texCoord":1
			},
			"occlusionTexture":{
				"extensions":{
					"KHR_texture_transform":{
						"offset":[
							-0.25249966979026794,
							-0.006681375205516815
						],
						"scale":[
							1.5380123853683472,
							1.0086913108825684
						]
					}
				},
				"index":3,
				"texCoord":1
			},
			"pbrMetallicRoughness":{
				"baseColorTexture":{
					"extensions":{
						"KHR_texture_transform":{
							"offset":[
								-0.25249966979026794,
								-0.006681375205516815
							],
							"scale":[
								1.5380123853683472,
								1.0086913108825684
							]
						}
					},
					"index":4,
					"texCoord":1
				},
				"metallicRoughnessTexture":{
					"extensions":{
						"KHR_texture_transform":{
							"offset":[
								-0.25249966979026794,
								-0.006681375205516815
							],
							"scale":[
								1.5380123853683472,
								1.0086913108825684
							]
						}
					},
					"index":3,
					"texCoord":1
				}
			}
		}
	],
	"meshes":[
		{
			"name":"Sparrow.001",
			"primitives":[
				{
					"attributes":{
						"POSITION":0,
						"NORMAL":1,
						"TEXCOORD_0":2,
						"TEXCOORD_1":3
					},
					"indices":4,
					"material":0
				}
			]
		}
	],
	"textures":[
		{
			"sampler":0,
			"source":0
		},
		{
			"sampler":0,
			"source":1
		},
		{
			"sampler":0,
			"source":2
		},
		{
			"sampler":0,
			"source":3
		},
		{
			"sampler":0,
			"source":4
		}
	],
	"images":[
		{
			"mimeType":"image/png",
			"name":"M_Sparrow_Arrow_Sparrow_Emissive",
			"uri":"M_Sparrow_Arrow_Sparrow_Emissive.png"
		},
		{
			"mimeType":"image/png",
			"name":"M_Sparrow_Arrow_Sparrow_Specular",
			"uri":"M_Sparrow_Arrow_Sparrow_Specular.png"
		},
		{
			"mimeType":"image/png",
			"name":"M_Sparrow_Arrow_Sparrow_Normal",
			"uri":"M_Sparrow_Arrow_Sparrow_Normal.png"
		},
		{
			"mimeType":"image/png",
			"name":"M_Sparrow_Arrow_Sparrow_Occlusion-M_Sparrow_Arrow_Sparrow_MetallicRoughness",
			"uri":"M_Sparrow_Arrow_Sparrow_Occlusion-M_Sparrow_Arrow_Sparrow_MetallicRoughness.png"
		},
		{
			"mimeType":"image/png",
			"name":"M_Sparrow_Arrow_Sparrow_BaseColor",
			"uri":"M_Sparrow_Arrow_Sparrow_BaseColor.png"
		}
	],
	"accessors":[
		{
			"bufferView":0,
			"componentType":5126,
			"count":164,
			"max":[
				0.018207838758826256,
				0.3541700541973114,
				0.02148822695016861
			],
			"min":[
				-0.018207937479019165,
				-0.43597689270973206,
				-0.02090650610625744
			],
			"type":"VEC3"
		},
		{
			"bufferView":1,
			"componentType":5126,
			"count":164,
			"type":"VEC3"
		},
		{
			"bufferView":2,
			"componentType":5126,
			"count":164,
			"type":"VEC2"
		},
		{
			"bufferView":3,
			"componentType":5126,
			"count":164,
			"type":"VEC2"
		},
		{
			"bufferView":4,
			"componentType":5123,
			"count":648,
			"type":"SCALAR"
		}
	],
	"bufferViews":[
		{
			"buffer":0,
			"byteLength":1968,
			"byteOffset":0,
			"target":34962
		},
		{
			"buffer":0,
			"byteLength":1968,
			"byteOffset":1968,
			"target":34962
		},
		{
			"buffer":0,
			"byteLength":1312,
			"byteOffset":3936,
			"target":34962
		},
		{
			"buffer":0,
			"byteLength":1312,
			"byteOffset":5248,
			"target":34962
		},
		{
			"buffer":0,
			"byteLength":1296,
			"byteOffset":6560,
			"target":34963
		}
	],
	"samplers":[
		{
			"magFilter":9729,
			"minFilter":9987
		}
	],
	"buffers":[
		{
			"byteLength":7856,
			"uri":"Arrow.bin"
		}
	]
}
