{
	"asset":{
		"generator":"Khronos glTF Blender I/O v4.2.57",
		"version":"2.0"
	},
	"extensionsUsed":[
		"KHR_materials_specular",
		"KHR_materials_unlit"
	],
	"scene":0,
	"scenes":[
		{
			"name":"Scene",
			"nodes":[
				0
			]
		}
	],
	"nodes":[
		{
			"mesh":0,
			"name":"Sparrow.001"
		}
	],
	"materials":[
		{
			"doubleSided":true,
			"extensions":{
				"KHR_materials_specular":{
					"specularTexture":{
						"index":0
					}
				}
			},
			"name":"M_Sparrow_Head_Arrow",
			"normalTexture":{
				"index":1
			},
			"pbrMetallicRoughness":{
				"baseColorTexture":{
					"index":2
				},
				"metallicRoughnessTexture":{
					"index":3
				}
			}
		},
		{
			"alphaCutoff":0.33329999446868896,
			"alphaMode":"MASK",
			"doubleSided":true,
			"extensions":{
				"KHR_materials_unlit":{}
			},
			"name":"M_ArrowString3",
			"pbrMetallicRoughness":{
				"baseColorTexture":{
					"index":4
				},
				"metallicFactor":0,
				"roughnessFactor":0.9
			}
		}
	],
	"meshes":[
		{
			"name":"Sparrow.002",
			"primitives":[
				{
					"attributes":{
						"POSITION":0,
						"NORMAL":1,
						"TEXCOORD_0":2,
						"TEXCOORD_1":3
					},
					"indices":4,
					"material":0
				},
				{
					"attributes":{
						"POSITION":5,
						"NORMAL":6,
						"TEXCOORD_0":7,
						"TEXCOORD_1":8
					},
					"indices":9,
					"material":1
				}
			]
		}
	],
	"textures":[
		{
			"sampler":0,
			"source":0
		},
		{
			"sampler":0,
			"source":1
		},
		{
			"sampler":0,
			"source":2
		},
		{
			"sampler":0,
			"source":3
		},
		{
			"sampler":0,
			"source":4
		}
	],
	"images":[
		{
			"mimeType":"image/png",
			"name":"M_Sparrow_Head_Arrow_Specular",
			"uri":"M_Sparrow_Head_Arrow_Specular.png"
		},
		{
			"mimeType":"image/png",
			"name":"M_Sparrow_Head_Arrow_Normal",
			"uri":"M_Sparrow_Head_Arrow_Normal.png"
		},
		{
			"mimeType":"image/png",
			"name":"M_Sparrow_Head_Arrow_BaseColor",
			"uri":"M_Sparrow_Head_Arrow_BaseColor.png"
		},
		{
			"mimeType":"image/png",
			"name":"M_Sparrow_Head_Arrow_MetallicRoughness",
			"uri":"M_Sparrow_Head_Arrow_MetallicRoughness.png"
		},
		{
			"mimeType":"image/png",
			"name":"M_ArrowString3_BaseColor",
			"uri":"M_ArrowString3_BaseColor.png"
		}
	],
	"accessors":[
		{
			"bufferView":0,
			"componentType":5126,
			"count":5027,
			"max":[
				0.02650575153529644,
				0.7406076192855835,
				0.10958569496870041
			],
			"min":[
				-0.026505324989557266,
				-0.7372620701789856,
				-0.15931853652000427
			],
			"type":"VEC3"
		},
		{
			"bufferView":1,
			"componentType":5126,
			"count":5027,
			"type":"VEC3"
		},
		{
			"bufferView":2,
			"componentType":5126,
			"count":5027,
			"type":"VEC2"
		},
		{
			"bufferView":3,
			"componentType":5126,
			"count":5027,
			"type":"VEC2"
		},
		{
			"bufferView":4,
			"componentType":5123,
			"count":26412,
			"type":"SCALAR"
		},
		{
			"bufferView":5,
			"componentType":5126,
			"count":49,
			"max":[
				0.002338689984753728,
				0.5780496001243591,
				-0.15110239386558533
			],
			"min":[
				-0.002338224556297064,
				-0.5747041702270508,
				-0.15650254487991333
			],
			"type":"VEC3"
		},
		{
			"bufferView":6,
			"componentType":5126,
			"count":49,
			"type":"VEC3"
		},
		{
			"bufferView":7,
			"componentType":5126,
			"count":49,
			"type":"VEC2"
		},
		{
			"bufferView":8,
			"componentType":5126,
			"count":49,
			"type":"VEC2"
		},
		{
			"bufferView":9,
			"componentType":5123,
			"count":216,
			"type":"SCALAR"
		}
	],
	"bufferViews":[
		{
			"buffer":0,
			"byteLength":60324,
			"byteOffset":0,
			"target":34962
		},
		{
			"buffer":0,
			"byteLength":60324,
			"byteOffset":60324,
			"target":34962
		},
		{
			"buffer":0,
			"byteLength":40216,
			"byteOffset":120648,
			"target":34962
		},
		{
			"buffer":0,
			"byteLength":40216,
			"byteOffset":160864,
			"target":34962
		},
		{
			"buffer":0,
			"byteLength":52824,
			"byteOffset":201080,
			"target":34963
		},
		{
			"buffer":0,
			"byteLength":588,
			"byteOffset":253904,
			"target":34962
		},
		{
			"buffer":0,
			"byteLength":588,
			"byteOffset":254492,
			"target":34962
		},
		{
			"buffer":0,
			"byteLength":392,
			"byteOffset":255080,
			"target":34962
		},
		{
			"buffer":0,
			"byteLength":392,
			"byteOffset":255472,
			"target":34962
		},
		{
			"buffer":0,
			"byteLength":432,
			"byteOffset":255864,
			"target":34963
		}
	],
	"samplers":[
		{
			"magFilter":9729,
			"minFilter":9987
		}
	],
	"buffers":[
		{
			"byteLength":256296,
			"uri":"Bow.bin"
		}
	]
}
