{
	"asset":
	{
		"version": "2.0",
		"generator": "Unreal Engine 5.3.2"
	},
	"scene": 0,
	"accessors": [
		{
			"bufferView": 0,
			"count": 14313,
			"type": "SCALAR",
			"componentType": 5123
		},
		{
			"bufferView": 1,
			"count": 3202,
			"type": "VEC3",
			"componentType": 5126,
			"min": [ -0.47074163, -0.47074163, -0.00883790292 ],
			"max": [ 0.47074163, 0.47074163, 0.187493548 ]
		},
		{
			"bufferView": 2,
			"count": 3202,
			"type": "VEC3",
			"componentType": 5126
		},
		{
			"bufferView": 3,
			"count": 3202,
			"type": "VEC4",
			"componentType": 5126
		},
		{
			"bufferView": 4,
			"count": 3202,
			"type": "VEC2",
			"componentType": 5126
		},
		{
			"bufferView": 5,
			"count": 3202,
			"type": "VEC2",
			"componentType": 5126
		}
	],
	"buffers": [
		{
			"uri": "Shield.bin",
			"byteLength": 207940
		}
	],
	"bufferViews": [
		{
			"buffer": 0,
			"byteLength": 28626,
			"target": 34963
		},
		{
			"buffer": 0,
			"byteLength": 38424,
			"byteOffset": 28628,
			"target": 34962
		},
		{
			"buffer": 0,
			"byteLength": 38424,
			"byteOffset": 67052,
			"target": 34962
		},
		{
			"buffer": 0,
			"byteLength": 51232,
			"byteOffset": 105476,
			"target": 34962
		},
		{
			"buffer": 0,
			"byteLength": 25616,
			"byteOffset": 156708,
			"target": 34962
		},
		{
			"buffer": 0,
			"byteLength": 25616,
			"byteOffset": 182324,
			"target": 34962
		}
	],
	"images": [
		{
			"uri": "M_Shield_01_MetallicRoughness.png"
		},
		{
			"uri": "T_Shield_01_D.png"
		},
		{
			"uri": "T_Shield_01_N.png"
		}
	],
	"materials": [
		{
			"name": "M_Shield_01",
			"pbrMetallicRoughness":
			{
				"baseColorTexture":
				{
					"index": 0
				},
				"metallicRoughnessTexture":
				{
					"index": 1
				}
			},
			"normalTexture":
			{
				"index": 2
			}
		}
	],
	"meshes": [
		{
			"name": "SM_Shield_01",
			"primitives": [
				{
					"attributes":
					{
						"POSITION": 1,
						"NORMAL": 2,
						"TANGENT": 3,
						"TEXCOORD_0": 4,
						"TEXCOORD_1": 5
					},
					"indices": 0,
					"material": 0
				}
			]
		}
	],
	"nodes": [
		{
			"mesh": 0
		}
	],
	"samplers": [
		{
			"minFilter": 9987,
			"magFilter": 9729
		}
	],
	"scenes": [
		{
			"nodes": [ 0 ]
		}
	],
	"textures": [
		{
			"name": "T_Shield_01_D",
			"sampler": 0,
			"source": 1
		},
		{
			"name": "M_Shield_01_MetallicRoughness",
			"sampler": 0,
			"source": 0
		},
		{
			"name": "T_Shield_01_N",
			"sampler": 0,
			"source": 2
		}
	]
}